<svg xmlns="http://www.w3.org/2000/svg" viewBox="0 0 256 333" width="256" height="333" role="img" aria-label="DEEPBLUE">
  <title>DEEPBLUE</title>
  <!-- 独立打开时按系统主题取色；内联进页面时 svg:root 不匹配，不产生副作用 -->
  <style>
    svg:root { --logo-ink: #133464; --logo-ink-strong: #0b2a58; }
    @media (prefers-color-scheme: dark) {
      svg:root { --logo-ink: #d7e5ff; --logo-ink-strong: #f0f6ff; }
    }
  </style>
  <g fill-rule="evenodd">
    <path fill="var(--logo-accent, #0bbc9e)" d="M122.5 1.2 131.8 1.2 134.2 2 137.8 2.2 147.5 5.2 147.8 5.8 153.2 8.2 153.8 9 156 10 160 13 165.8 18.8 170 24.8 171.8 26.5 172 27.5 172.8 28 172.8 29.2 159.8 42 159.2 42 158.2 41 157.8 39.2 157 38.8 157 38 155.2 36 155 35 152.8 32.8 152 31.2 146 26 145.2 26 144.8 25.2 143.2 24.8 141.2 23.2 138.8 22.8 135.5 21.2 132 21 131 20.5 126.5 20.5 120.2 21.2 119.2 22 114.8 23.2 112.8 24.8 111.2 25.2 104 31.2 104 31.8 101.2 34.5 100.8 36 99.2 37.8 96.5 44.5 95.5 49.5 94.5 49.8 81.2 35 81.2 33.5 84.2 27 85 26.5 87.2 22.2 88.8 21 89.8 19.2 93.8 15 94.2 15 96 13 96.5 13 99.5 10.2 101 9.8 104.2 7.2 110.8 4.2 112.8 4 117.8 2.2 121.5 2Z M191.5 19 193.5 19 194.2 20 194.8 20 200.2 25.5 200.2 26 200.8 26 201 26.8 204 29.2 204 29.8 206.8 32.2 207.5 33.8 207.2 35 176.8 65.5 174.2 69.5 174 71.2 172 75.2 172 76.2 171 77.2 168.8 81.8 167.2 83.2 166 85.5 160.8 91 160.2 91 156 95 155 95.2 154.5 96 148.5 99.2 148.2 99.8 145.5 100.5 143.2 102 138 103.5 137.2 102.5 137 100.8 137 84.2 136.5 75 154 57.2 154 56.8 158.2 52.8 158.2 52.2 160 51 160 50.5 161 50 162.5 48 163 48 163 47.5 168 42.8 168 42.2 168.8 42 169 41.2 169.8 41 170 40.2 170.8 40 171 39.2 171.8 39 172 38.2 172.8 38 173 37.2 174.8 36 175 35.2 176.8 34 177 33.2 185 25.5 185 25Z M69.5 35.8 71.8 35.8 72.8 36.8 73.8 37 89 53.5 89 54 90.8 55.2 91.2 56.5 104 69.5 104 70 111.2 77.2 112 77.5 112 78 114.5 79.2 115 80 118.2 81.2 118.5 100.5 118 104 115.2 103.8 114.8 103.2 109.2 101.8 109 101.2 105.2 99.8 102.8 98 102 98 94 92 85.8 83.8 83.2 80.2 79 75.8 78.2 74.2 75.2 71.5 74.8 70.2 69.2 64.8 67 61.8 56 50.5 55.8 49 57 47.2 58.8 46 59 45.2 59.8 45 59.8 44.5 60.8 44 61 43.2 61.8 43 61.8 42.5 63 41.8 63 41.2 63.8 41 65.2 39 65.8 39 67.5 37Z"/>
    <path fill="var(--logo-ink, currentColor)" d="M125.5 70.2 130 70.2 132.2 71 132.8 71.8 133.8 72 136 74.8 136.5 84.2 136.5 100.8 136.8 102.5 137.5 103.8 137 105 138.2 122.8 189.8 122.8 191.8 123 193 123.8 194 124.8 195 127.2 194.8 138.8 193 141 191.5 141.8 141 142 140.5 142.8 146.2 224 147.2 228.8 149 232.8 150 233.8 150.2 234.8 153.5 238 157.2 240 160.8 240.8 165.2 240.8 169.8 240 176.2 238 183.2 235 188.2 232 189 232 189.5 231.2 190.5 231 194.5 228 195.5 227.8 196 227 197 226.8 203.8 221 204.2 221 214 211.5 214 211 220 204 223.2 199 222.8 198 220.5 198.8 215.5 199.2 208 199.2 207 198.2 226.8 178.5 226.8 178 233 171.8 233 171.2 235 169.5 235 169 237 167.2 237 166.8 239.2 164.8 239.2 164.2 244 159 244.5 159 245.2 160 246.2 164.2 246.8 164.8 249 175.8 249.2 181.2 249.8 182 249.8 192.2 249 195 249 199 246.8 211.5 246.2 212.2 246.2 213.5 245.5 214.5 244.5 214 244.5 213.5 239.2 207.8 238.2 206 237 205.8 235.8 208.8 235.2 209 232.8 214 232 214.5 231.8 215.8 231 216.2 229.8 219 229 219.5 228 221.8 226 224 225 226 224 226.8 220 232.2 215.2 237 215.2 237.5 204.8 247.2 203.2 248 201.2 250 200.2 250.2 198.5 252 197.5 252.2 196 253.8 195 254 194 255 186.2 259.2 186 259.8 184.2 260.2 179.8 263 176 264.2 175.8 264.8 174.2 265 173.2 265.8 171 266.2 170.8 266.8 166.2 268.2 166 268.8 164.5 269 161.8 270.2 161.5 270.8 160 271 158.8 272 155.8 273 152.8 275 152 275 141.8 282 133.5 290.2 129.2 292.8 126.8 292.5 124 291 120 287 120 286.5 115.8 282.8 115.8 282.2 115.2 282.2 112 279.2 111 279 110.2 278 106.2 275.8 105.8 275 105 275 102.5 273.2 95.5 270 89.5 268 88.8 267.2 87 267 86.2 266.2 82.2 265 78.8 263 73.2 260.8 71.2 259.2 70 259 65.8 256.2 64.2 255.8 63.8 255 63 255 62.5 254.2 61.5 254 61 253.2 60 253 52 247.2 40.8 237 40.8 236.5 38.2 234.2 38.2 233.8 36.2 232 36.2 231.5 33.2 228.2 33 227.2 31.2 225.5 31 224.5 30.2 224 29 221.5 26 217.5 26 216.8 25 215.8 24.8 214.5 24 214 24 213.2 22 210.5 21.8 209.2 21 208.8 19.8 205.8 19 205.8 18 206.8 18 207.2 13 212.8 12.2 214.2 11 215 10.2 214 9 207 8.2 205.2 6.8 192.5 6.8 184 8 172.5 8.8 170.8 9.2 166.8 11 161.8 11 160.5 11.5 159 12.5 158.5 16 162.5 16 163 17.8 164.5 18.2 165.8 20 167.2 21 169 27.2 175.5 27.2 176 49.5 198.2 49.5 198.8 48.5 199.5 45.5 199.8 38.8 199.2 35.5 198.2 33.8 198.2 33.8 199.2 35 200.5 37 204 41.8 209.2 41.8 209.8 44 211.8 44 212.2 48.2 216.2 48.2 216.8 48.8 216.8 51.5 219.8 55 222.2 56.2 223.8 57.5 224.2 58.2 225.2 61.8 227.8 62.8 228 65 230 65.8 230 66.2 230.8 69.2 232 70.2 233 81 238 82.2 238 84 239 87.5 240 93 240.8 99.5 240 103.8 237.8 105.2 236 106 235.8 106 235.2 107.8 233.5 109.8 229.2 110.2 225 110.8 224 111.2 206.2 112 200.5 112.2 188 113 182 113 173.5 113.8 168.8 115 142.5 114.8 142 63.5 141.8 61 139.8 60.5 138 60.8 126 61.5 124.5 63.8 123 117.5 122.8 118 104.5 118.8 103.8 119 100.5 119 77 120.8 73.5 123.5 71Z"/>
    <path fill="var(--logo-ink-strong, currentColor)" d="M8.2 298.5 33.8 298.5 35.2 299 37.2 300.5 37.8 301.5 37.5 315.2 38 316.5 38 321.8 37.5 322.8 38 323.2 38 328.2 35.5 330.8 25.8 331.2 16.2 331.2 15.2 330.8 14.2 331.2 9.2 331.2 7.2 330.5 6.8 328.2 7.2 326.5 7.2 299.2Z M41.8 298.5 66.2 298.5 67 299.2 67 305.8 66.5 306.2 53.2 306.2 52.5 307.2 52.5 309.8 53 310.5 65.2 310.5 65.8 311 66 317.5 65.2 318.2 63.8 318.8 62.5 318.2 60.8 318.8 59 318.2 56.2 318.2 55.8 318.8 53.2 318.5 52.8 319.2 52.8 321.2 53.5 322.5 57.5 322.5 58 322 59.5 322.8 61 322 66.5 322.5 67 323 67.2 328 67 330 66 331.2 61.2 330.8 59.5 331.2 55 331.2 53 330.8 41.8 331 40.8 330 41 321.8 40.5 317 41 316.2 41 299.2Z M70.5 298.5 95 298.5 96 299.5 96 305.5 95.2 306.2 82 306.2 81.5 306.8 81.5 310 82 310.5 94 310.5 94.8 311.2 94.5 312.8 95 313.8 95 317.5 94 318.5 92.2 318.2 91 318.8 90.5 318.2 88.2 318.2 86.5 318.8 86 318.2 85 318.2 84.5 318.8 82.2 318.8 81.8 319.2 81.8 321.5 82 322 84 322.5 91.5 322.8 92.2 322.2 95.2 322.2 96 323.2 96 329.8 95 331.2 76 331 74.2 331.5 72 330.8 70.2 331 69.8 330.5 70 328.2 69.5 325.2 70 323.8 69.2 321.2 70 317.8 69.5 315.2 70 314.5 70 299Z M99.5 298.5 125.2 298.5 127 299.2 129 301.2 129.2 317.5 128.8 319 127.5 320.2 126.8 320.2 125.5 321.2 122.8 320.8 110.8 321 110.8 323.8 110.2 324.8 110.8 325.5 110.5 328.2 111 329.8 110.2 330.8 99.2 331 98.5 330.2 98.8 327.8 98.2 327.2 98.2 324.2 98.8 323.8 98.8 299.2Z M132.5 298.5 158.2 298.5 161.5 300.5 162 301.5 162 311.5 159.2 314 159.2 314.8 160.5 315 162.2 317.2 162.2 328.5 161.8 329 160.8 329.2 159.8 330.8 157.2 331.2 138.8 330.8 134.2 331.2 131.5 331 131 330.5 131.5 329.8 131.8 324 131.8 320.5 131.2 320 131.2 318.5 131.8 317.8 131.8 299.2Z M166.2 298.5 176.2 298.5 177 299.2 177 316.8 177.5 317 177.5 318 177 318.2 177 321.8 177.8 322.5 182.2 322.2 183.8 322.8 185.2 322 188 322.5 188.8 323.2 188.8 330.5 188 331.2 174.2 331 173.2 331.5 172.5 331 166 331 165.2 330.2 165.2 299.2Z M191 298.5 201 298.5 201.8 299.2 201.8 319.5 202.2 320.2 201.8 322.2 202.2 323.2 207.8 323.2 208.5 322.8 208 317.8 208.8 316.8 208.8 315.2 208.2 314.8 208.8 313.8 208.8 299.2 209.5 298.5 219.5 298.5 220.2 299.2 220.2 319.5 220.8 320.5 220.8 325 220.2 325.5 220.2 328.5 218.2 330.5 217.2 331 213.8 331.2 209 331.2 207 330.8 197.5 330.8 194 331.2 192.8 330.2 191.5 330 190.2 328.8 190.2 299.2Z M224.5 298.5 248.5 298.5 249.5 299.5 249.5 305.5 248.8 306.2 235.5 306.2 235 307 235 310 235.5 310.5 247.5 310.5 248 311 248.2 315.5 248.8 316.5 247.8 318.2 243 318.2 242 318.8 239.2 318.8 238.8 318.2 237.5 318.2 235.5 319 235.5 322 236 322.5 248.8 322.5 249.5 323.2 249.5 328.2 249.2 330.5 248.8 331 242.2 330.8 241 331.2 235.8 331 235.2 331.5 234 331.5 233.5 331 224.2 331.2 223 330 223.5 328 223 324.5 223.2 316 222.8 315.2 223.5 314.8 223.5 299.2Z M19.5 305.8 19 306.2 19 315 19.5 319.2 19.2 322.8 19.8 323.2 22.2 323 23.5 323.5 25.8 322.8 26 321.2 26 306Z M111.2 305.8 110.2 306.2 110.2 312.8 111.5 313.5 116.8 313.2 117.2 312.5 117 306Z M144 305.8 143.2 306 143.5 310.8 150 310.8 150.2 306.5 149.8 305.8Z M145.2 318 143.5 319 143.8 322.8 145.2 323.5 146.5 323 149.8 323 150 319 148.2 318Z"/>
  </g>
</svg>
